<svg width="22" height="23" viewBox="0 0 22 23" fill="none" xmlns="http://www.w3.org/2000/svg">
<path d="M20.4286 0.5H1.56652C0.702232 0.5 0 1.21205 0 2.08616V20.9138C0 21.7879 0.702232 22.5 1.56652 22.5H20.4286C21.2929 22.5 22 21.7879 22 20.9138V2.08616C22 1.21205 21.2929 0.5 20.4286 0.5ZM6.64911 19.3571H3.38839V8.85804H6.65402V19.3571H6.64911ZM5.01875 7.42411C3.97277 7.42411 3.12812 6.57455 3.12812 5.53348C3.12812 4.49241 3.97277 3.64286 5.01875 3.64286C6.05982 3.64286 6.90937 4.49241 6.90937 5.53348C6.90937 6.57946 6.06473 7.42411 5.01875 7.42411ZM18.8719 19.3571H15.6112V14.25C15.6112 13.0321 15.5866 11.4656 13.917 11.4656C12.2179 11.4656 11.9576 12.7915 11.9576 14.1616V19.3571H8.69688V8.85804H11.825V10.292H11.8692C12.3062 9.46696 13.3719 8.59777 14.958 8.59777C18.258 8.59777 18.8719 10.7732 18.8719 13.6018V19.3571Z" fill="black"/>
</svg>
