<svg width="360" height="258" viewBox="0 0 360 258" fill="none" xmlns="http://www.w3.org/2000/svg">
<path d="M0 40.9972L7.53333 37.2217C15.1333 33.5071 30.2 25.9562 45.2 25.9562C60.2 25.9562 75.1333 33.5071 90.1333 33.8725C105.133 34.2987 120.2 27.6003 135.2 29.6099C150.2 31.6803 165.133 42.3978 180.133 44.7726C195.133 47.0866 210.2 40.9972 225.2 36.5519C240.2 32.0457 255.133 29.2445 270.133 26.8696C285.133 24.5556 300.2 22.7288 315.2 23.0332C330.2 23.3377 345.133 25.7735 352.533 26.9914L360 28.2093V259H352.533C345.133 259 330.2 259 315.2 259C300.2 259 285.133 259 270.133 259C255.133 259 240.2 259 225.2 259C210.2 259 195.133 259 180.133 259C165.133 259 150.2 259 135.2 259C120.2 259 105.133 259 90.1333 259C75.1333 259 60.2 259 45.2 259C30.2 259 15.1333 259 7.53333 259H0V40.9972Z" fill="#137B37"/>
<path d="M0 74.4399L7.53333 71.6911C15.1333 69.0078 30.2 63.5103 45.2 59.3871C60.2 55.264 75.1333 52.3843 90.1333 55.0022C105.133 57.6201 120.2 65.7355 135.2 70.055C150.2 74.4399 165.133 75.0944 180.133 76.0761C195.133 77.0578 210.2 78.3667 225.2 75.4216C240.2 72.4765 255.133 65.2774 270.133 63.4448C285.133 61.5469 300.2 65.081 315.2 67.6989C330.2 70.3168 345.133 72.0184 352.533 72.9346L360 73.7854V259H352.533C345.133 259 330.2 259 315.2 259C300.2 259 285.133 259 270.133 259C255.133 259 240.2 259 225.2 259C210.2 259 195.133 259 180.133 259C165.133 259 150.2 259 135.2 259C120.2 259 105.133 259 90.1333 259C75.1333 259 60.2 259 45.2 259C30.2 259 15.1333 259 7.53333 259H0V74.4399Z" fill="#158A3E"/>
<path d="M0 102.807L7.53333 102.368C15.1333 101.992 30.2 101.113 45.2 104.814C60.2 108.453 75.1333 116.607 90.1333 116.795C105.133 117.046 120.2 109.268 135.2 109.833C150.2 110.334 165.133 119.116 180.133 124.009C195.133 128.965 210.2 129.968 225.2 125.515C240.2 120.998 255.133 110.962 270.133 109.205C285.133 107.386 300.2 113.91 315.2 117.736C330.2 121.625 345.133 122.88 352.533 123.507L360 124.135V259H352.533C345.133 259 330.2 259 315.2 259C300.2 259 285.133 259 270.133 259C255.133 259 240.2 259 225.2 259C210.2 259 195.133 259 180.133 259C165.133 259 150.2 259 135.2 259C120.2 259 105.133 259 90.1333 259C75.1333 259 60.2 259 45.2 259C30.2 259 15.1333 259 7.53333 259H0V102.807Z" fill="#189945"/>
<path d="M0 156L7.53333 158.133C15.1333 160.2 30.2 164.467 45.2 166.533C60.2 168.667 75.1333 168.667 90.1333 167.8C105.133 166.867 120.2 165.133 135.2 165.8C150.2 166.467 165.133 169.533 180.133 168.8C195.133 168 210.2 163.333 225.2 162.8C240.2 162.2 255.133 165.8 270.133 165.533C285.133 165.333 300.2 161.333 315.2 159.2C330.2 157.133 345.133 156.867 352.533 156.8L360 156.667V258.667H352.533C345.133 258.667 330.2 258.667 315.2 258.667C300.2 258.667 285.133 258.667 270.133 258.667C255.133 258.667 240.2 258.667 225.2 258.667C210.2 258.667 195.133 258.667 180.133 258.667C165.133 258.667 150.2 258.667 135.2 258.667C120.2 258.667 105.133 258.667 90.1333 258.667C75.1333 258.667 60.2 258.667 45.2 258.667C30.2 258.667 15.1333 258.667 7.53333 258.667H0V156Z" fill="#1AA94C"/>
<path d="M0 218L7.53333 216.8C15.1333 215.533 30.2 213.133 45.2 212.467C60.2 211.8 75.1333 212.867 90.1333 211C105.133 209.133 120.2 204.2 135.2 204.333C150.2 204.467 165.133 209.533 180.133 212.133C195.133 214.667 210.2 214.667 225.2 212.133C240.2 209.533 255.133 204.467 270.133 203.467C285.133 202.467 300.2 205.533 315.2 205.467C330.2 205.333 345.133 202 352.533 200.333L360 198.667V258.667H352.533C345.133 258.667 330.2 258.667 315.2 258.667C300.2 258.667 285.133 258.667 270.133 258.667C255.133 258.667 240.2 258.667 225.2 258.667C210.2 258.667 195.133 258.667 180.133 258.667C165.133 258.667 150.2 258.667 135.2 258.667C120.2 258.667 105.133 258.667 90.1333 258.667C75.1333 258.667 60.2 258.667 45.2 258.667C30.2 258.667 15.1333 258.667 7.53333 258.667H0V218Z" fill="#1DB954"/>
</svg>
