<svg width="360" height="580" viewBox="0 0 360 580" fill="none" xmlns="http://www.w3.org/2000/svg">
<path d="M0 16.7658L4.66667 17.4063C9.33333 18.0467 18.6667 19.3276 27.8667 19.4557C37.1333 19.5198 46.2 18.495 55.4667 14.9726C64.6667 11.4501 74 5.42991 83.2 3.18834C92.4667 0.946776 101.533 2.48385 110.8 2.67598C120 2.86812 129.333 1.8434 138.533 1.8434C147.8 1.8434 156.867 2.86812 166.133 4.14901C175.333 5.42991 184.667 6.96698 193.867 9.20855C203.133 11.4501 212.2 14.3962 221.467 15.9973C230.667 17.5984 240 17.8546 249.2 18.3669C258.467 18.8793 267.533 19.7759 276.8 17.7265C286 15.6771 295.333 10.8097 304.533 7.15912C313.8 3.50857 322.867 1.20296 332.133 0.434418C341.333 -0.334119 350.667 0.562507 355.333 0.946776L360 1.39509V581H355.333C350.667 581 341.333 581 332.133 581C322.867 581 313.8 581 304.533 581C295.333 581 286 581 276.8 581C267.533 581 258.467 581 249.2 581C240 581 230.667 581 221.467 581C212.2 581 203.133 581 193.867 581C184.667 581 175.333 581 166.133 581C156.867 581 147.8 581 138.533 581C129.333 581 120 581 110.8 581C101.533 581 92.4667 581 83.2 581C74 581 64.6667 581 55.4667 581C46.2 581 37.1333 581 27.8667 581C18.6667 581 9.33333 581 4.66667 581H0V16.7658Z" fill="#137B37"/>
<path d="M0 61.7609L4.66667 61.9511C9.33333 62.2047 18.6667 62.585 27.8667 62.3949C37.1333 62.2047 46.2 61.3171 55.4667 63.3458C64.6667 65.3746 74 70.193 83.2 68.925C92.4667 67.657 101.533 60.3027 110.8 59.9857C120 59.6687 129.333 66.389 138.533 68.2276C147.8 70.0027 156.867 66.8328 166.133 66.9596C175.333 67.023 184.667 70.4465 193.867 69.3688C203.133 68.291 212.2 62.8386 221.467 61.0001C230.667 59.2249 240 61.1269 249.2 62.8386C258.467 64.487 267.533 66.0086 276.8 66.8328C286 67.657 295.333 67.9106 304.533 66.1988C313.8 64.487 322.867 60.9367 332.133 58.0837C341.333 55.2307 350.667 53.0752 355.333 52.0608L360 50.983V581H355.333C350.667 581 341.333 581 332.133 581C322.867 581 313.8 581 304.533 581C295.333 581 286 581 276.8 581C267.533 581 258.467 581 249.2 581C240 581 230.667 581 221.467 581C212.2 581 203.133 581 193.867 581C184.667 581 175.333 581 166.133 581C156.867 581 147.8 581 138.533 581C129.333 581 120 581 110.8 581C101.533 581 92.4667 581 83.2 581C74 581 64.6667 581 55.4667 581C46.2 581 37.1333 581 27.8667 581C18.6667 581 9.33333 581 4.66667 581H0V61.7609Z" fill="#14803A"/>
<path d="M0 103.614L4.66667 105.39C9.33333 107.228 18.6667 110.778 27.8667 111.666C37.1333 112.49 46.2 110.588 55.4667 110.588C64.6667 110.588 74 112.49 83.2 110.715C92.4667 108.876 101.533 103.424 110.8 104.058C120 104.692 129.333 111.412 138.533 114.836C147.8 118.196 156.867 118.196 166.133 116.801C175.333 115.47 184.667 112.68 193.867 110.715C203.133 108.686 212.2 107.418 221.467 106.34C230.667 105.326 240 104.439 249.2 106.657C258.467 108.876 267.533 114.202 276.8 116.167C286 118.196 295.333 116.928 304.533 115.153C313.8 113.314 322.867 111.032 332.133 109.764C341.333 108.496 350.667 108.242 355.333 108.179L360 108.052V581H355.333C350.667 581 341.333 581 332.133 581C322.867 581 313.8 581 304.533 581C295.333 581 286 581 276.8 581C267.533 581 258.467 581 249.2 581C240 581 230.667 581 221.467 581C212.2 581 203.133 581 193.867 581C184.667 581 175.333 581 166.133 581C156.867 581 147.8 581 138.533 581C129.333 581 120 581 110.8 581C101.533 581 92.4667 581 83.2 581C74 581 64.6667 581 55.4667 581C46.2 581 37.1333 581 27.8667 581C18.6667 581 9.33333 581 4.66667 581H0V103.614Z" fill="#15863C"/>
<path d="M0 152.431L4.66667 154.65C9.33333 156.869 18.6667 161.306 27.8667 160.799C37.1333 160.229 46.2 154.776 55.4667 153.572C64.6667 152.431 74 155.601 83.2 155.791C92.4667 156.044 101.533 153.255 110.8 154.84C120 156.425 129.333 162.384 138.533 162.765C147.8 163.208 156.867 158.136 166.133 156.361C175.333 154.523 184.667 156.044 193.867 155.601C203.133 155.157 212.2 152.874 221.467 155.093C230.667 157.312 240 164.032 249.2 164.603C258.467 165.11 267.533 159.404 276.8 158.77C286 158.136 295.333 162.574 304.533 162.765C313.8 163.018 322.867 158.961 332.133 155.157C341.333 151.353 350.667 147.803 355.333 145.964L360 144.189V581H355.333C350.667 581 341.333 581 332.133 581C322.867 581 313.8 581 304.533 581C295.333 581 286 581 276.8 581C267.533 581 258.467 581 249.2 581C240 581 230.667 581 221.467 581C212.2 581 203.133 581 193.867 581C184.667 581 175.333 581 166.133 581C156.867 581 147.8 581 138.533 581C129.333 581 120 581 110.8 581C101.533 581 92.4667 581 83.2 581C74 581 64.6667 581 55.4667 581C46.2 581 37.1333 581 27.8667 581C18.6667 581 9.33333 581 4.66667 581H0V152.431Z" fill="#168B3F"/>
<path d="M0 215.829L4.66667 214.561C9.33333 213.293 18.6667 210.757 27.8667 210.883C37.1333 210.947 46.2 213.736 55.4667 214.244C64.6667 214.751 74 213.102 83.2 210.44C92.4667 207.777 101.533 204.227 110.8 205.178C120 206.129 129.333 211.581 138.533 211.391C147.8 211.2 156.867 205.241 166.133 203.466C175.333 201.691 184.667 203.973 193.867 204.227C203.133 204.417 212.2 202.515 221.467 203.022C230.667 203.593 240 206.509 249.2 207.904C258.467 209.299 267.533 209.045 276.8 210.123C286 211.2 295.333 213.483 304.533 211.264C313.8 209.045 322.867 202.325 332.133 202.705C341.333 203.149 350.667 210.757 355.333 214.561L360 218.364V581H355.333C350.667 581 341.333 581 332.133 581C322.867 581 313.8 581 304.533 581C295.333 581 286 581 276.8 581C267.533 581 258.467 581 249.2 581C240 581 230.667 581 221.467 581C212.2 581 203.133 581 193.867 581C184.667 581 175.333 581 166.133 581C156.867 581 147.8 581 138.533 581C129.333 581 120 581 110.8 581C101.533 581 92.4667 581 83.2 581C74 581 64.6667 581 55.4667 581C46.2 581 37.1333 581 27.8667 581C18.6667 581 9.33333 581 4.66667 581H0V215.829Z" fill="#179141"/>
<path d="M0 257.671L4.66667 257.861C9.33333 258.115 18.6667 258.495 27.8667 255.579C37.1333 252.599 46.2 246.259 55.4667 244.231C64.6667 242.265 74 244.548 83.2 244.992C92.4667 245.435 101.533 243.914 110.8 246.767C120 249.62 129.333 256.847 138.533 260.207C147.8 263.567 156.867 263.187 166.133 261.031C175.333 258.939 184.667 255.135 193.867 251.838C203.133 248.605 212.2 245.816 221.467 245.625C230.667 245.435 240 247.718 249.2 250.254C258.467 252.789 267.533 255.579 276.8 253.677C286 251.775 295.333 245.182 304.533 245.308C313.8 245.435 322.867 252.155 332.133 253.106C341.333 254.057 350.667 249.239 355.333 246.767L360 244.358V581H355.333C350.667 581 341.333 581 332.133 581C322.867 581 313.8 581 304.533 581C295.333 581 286 581 276.8 581C267.533 581 258.467 581 249.2 581C240 581 230.667 581 221.467 581C212.2 581 203.133 581 193.867 581C184.667 581 175.333 581 166.133 581C156.867 581 147.8 581 138.533 581C129.333 581 120 581 110.8 581C101.533 581 92.4667 581 83.2 581C74 581 64.6667 581 55.4667 581C46.2 581 37.1333 581 27.8667 581C18.6667 581 9.33333 581 4.66667 581H0V257.671Z" fill="#189644"/>
<path d="M0 312.193L4.66667 310.101C9.33333 307.946 18.6667 303.761 27.8667 301.923C37.1333 300.148 46.2 300.782 55.4667 299.514C64.6667 298.246 74 295.076 83.2 293.491C92.4667 291.906 101.533 291.906 110.8 293.808C120 295.71 129.333 299.514 138.533 299.831C147.8 300.148 156.867 296.978 166.133 294.252C175.333 291.462 184.667 289.18 193.867 292.033C203.133 294.886 212.2 302.874 221.467 303.191C230.667 303.508 240 296.154 249.2 295.076C258.467 293.998 267.533 299.323 276.8 301.923C286 304.585 295.333 304.585 304.533 303.191C313.8 301.859 322.867 299.07 332.133 297.612C341.333 296.154 350.667 295.9 355.333 295.837L360 295.71V581H355.333C350.667 581 341.333 581 332.133 581C322.867 581 313.8 581 304.533 581C295.333 581 286 581 276.8 581C267.533 581 258.467 581 249.2 581C240 581 230.667 581 221.467 581C212.2 581 203.133 581 193.867 581C184.667 581 175.333 581 166.133 581C156.867 581 147.8 581 138.533 581C129.333 581 120 581 110.8 581C101.533 581 92.4667 581 83.2 581C74 581 64.6667 581 55.4667 581C46.2 581 37.1333 581 27.8667 581C18.6667 581 9.33333 581 4.66667 581H0V312.193Z" fill="#189C46"/>
<path d="M0 338.186H4.66667C9.33333 338.186 18.6667 338.186 27.8667 341.483C37.1333 344.716 46.2 351.31 55.4667 352.451C64.6667 353.592 74 349.408 83.2 348.457C92.4667 347.506 101.533 349.788 110.8 348.774C120 347.696 129.333 343.258 138.533 342.434C147.8 341.546 156.867 344.336 166.133 344.336C175.333 344.336 184.667 341.546 193.867 339.454C203.133 337.362 212.2 335.841 221.467 337.235C230.667 338.63 240 342.814 249.2 345.667C258.467 348.52 267.533 350.042 276.8 348.647C286 347.252 295.333 343.068 304.533 340.912C313.8 338.82 322.867 338.82 332.133 339.264C341.333 339.644 350.667 340.532 355.333 340.912L360 341.356V581H355.333C350.667 581 341.333 581 332.133 581C322.867 581 313.8 581 304.533 581C295.333 581 286 581 276.8 581C267.533 581 258.467 581 249.2 581C240 581 230.667 581 221.467 581C212.2 581 203.133 581 193.867 581C184.667 581 175.333 581 166.133 581C156.867 581 147.8 581 138.533 581C129.333 581 120 581 110.8 581C101.533 581 92.4667 581 83.2 581C74 581 64.6667 581 55.4667 581C46.2 581 37.1333 581 27.8667 581C18.6667 581 9.33333 581 4.66667 581H0V338.186Z" fill="#19A249"/>
<path d="M0 378.761L4.66667 382.565C9.33333 386.369 18.6667 393.976 27.8667 394.484C37.1333 395.054 46.2 388.461 55.4667 387.827C64.6667 387.193 74 392.518 83.2 396.512C92.4667 400.506 101.533 403.296 110.8 400.316C120 397.336 129.333 388.714 138.533 388.588C147.8 388.461 156.867 396.956 166.133 401.077C175.333 405.198 184.667 404.944 193.867 401.901C203.133 398.858 212.2 392.899 221.467 389.729C230.667 386.559 240 386.178 249.2 388.905C258.467 391.631 267.533 397.59 276.8 398.414C286 399.238 295.333 395.054 304.533 392.265C313.8 389.539 322.867 388.271 332.133 388.271C341.333 388.271 350.667 389.539 355.333 390.173L360 390.807V581H355.333C350.667 581 341.333 581 332.133 581C322.867 581 313.8 581 304.533 581C295.333 581 286 581 276.8 581C267.533 581 258.467 581 249.2 581C240 581 230.667 581 221.467 581C212.2 581 203.133 581 193.867 581C184.667 581 175.333 581 166.133 581C156.867 581 147.8 581 138.533 581C129.333 581 120 581 110.8 581C101.533 581 92.4667 581 83.2 581C74 581 64.6667 581 55.4667 581C46.2 581 37.1333 581 27.8667 581C18.6667 581 9.33333 581 4.66667 581H0V378.761Z" fill="#1AA74C"/>
<path d="M0 449.132L4.66667 445.202C9.33333 441.335 18.6667 433.473 27.8667 431.571C37.1333 429.669 46.2 433.727 55.4667 434.868C64.6667 436.009 74 434.361 83.2 435.692C92.4667 437.087 101.533 441.525 110.8 444.568C120 447.674 129.333 449.323 138.533 447.104C147.8 444.885 156.867 438.799 166.133 435.629C175.333 432.459 184.667 432.205 193.867 433.41C203.133 434.551 212.2 437.087 221.467 436.96C230.667 436.897 240 434.107 249.2 435.058C258.467 436.009 267.533 440.701 276.8 440.384C286 440.067 295.333 434.741 304.533 435.629C313.8 436.453 322.867 443.427 332.133 443.237C341.333 442.983 350.667 435.629 355.333 431.888L360 428.211V581H355.333C350.667 581 341.333 581 332.133 581C322.867 581 313.8 581 304.533 581C295.333 581 286 581 276.8 581C267.533 581 258.467 581 249.2 581C240 581 230.667 581 221.467 581C212.2 581 203.133 581 193.867 581C184.667 581 175.333 581 166.133 581C156.867 581 147.8 581 138.533 581C129.333 581 120 581 110.8 581C101.533 581 92.4667 581 83.2 581C74 581 64.6667 581 55.4667 581C46.2 581 37.1333 581 27.8667 581C18.6667 581 9.33333 581 4.66667 581H0V449.132Z" fill="#1BAD4E"/>
<path d="M0 487.805L4.66667 488.439C9.33333 489.073 18.6667 490.341 27.8667 490.151C37.1333 489.897 46.2 488.249 55.4667 488.566C64.6667 488.883 74 491.165 83.2 489.517C92.4667 487.805 101.533 482.099 110.8 479.246C120 476.394 129.333 476.394 138.533 476.52C147.8 476.584 156.867 476.837 166.133 476.711C175.333 476.584 184.667 476.203 193.867 479.12C203.133 482.099 212.2 488.439 221.467 492.116C230.667 495.857 240 496.871 249.2 497.632C258.467 498.393 267.533 498.773 276.8 497.822C286 496.871 295.333 494.589 304.533 493.511C313.8 492.433 322.867 492.687 332.133 490.848C341.333 489.073 350.667 485.269 355.333 483.367L360 481.465V581H355.333C350.667 581 341.333 581 332.133 581C322.867 581 313.8 581 304.533 581C295.333 581 286 581 276.8 581C267.533 581 258.467 581 249.2 581C240 581 230.667 581 221.467 581C212.2 581 203.133 581 193.867 581C184.667 581 175.333 581 166.133 581C156.867 581 147.8 581 138.533 581C129.333 581 120 581 110.8 581C101.533 581 92.4667 581 83.2 581C74 581 64.6667 581 55.4667 581C46.2 581 37.1333 581 27.8667 581C18.6667 581 9.33333 581 4.66667 581H0V487.805Z" fill="#1CB351"/>
<path d="M0 540.425L4.66667 539.665C9.33333 538.967 18.6667 537.446 27.8667 534.72C37.1333 531.993 46.2 527.936 55.4667 527.873C64.6667 527.746 74 531.55 83.2 531.676C92.4667 531.74 101.533 528.19 110.8 526.351C120 524.576 129.333 524.576 138.533 526.478C147.8 528.38 156.867 532.184 166.133 535.037C175.333 537.889 184.667 539.791 193.867 539.918C203.133 539.982 212.2 538.333 221.467 534.593C230.667 530.916 240 525.21 249.2 524.576C258.467 523.942 267.533 528.38 276.8 528.38C286 528.38 295.333 523.942 304.533 524.703C313.8 525.4 322.867 531.359 332.133 533.008C341.333 534.72 350.667 532.184 355.333 530.916L360 529.648V581H355.333C350.667 581 341.333 581 332.133 581C322.867 581 313.8 581 304.533 581C295.333 581 286 581 276.8 581C267.533 581 258.467 581 249.2 581C240 581 230.667 581 221.467 581C212.2 581 203.133 581 193.867 581C184.667 581 175.333 581 166.133 581C156.867 581 147.8 581 138.533 581C129.333 581 120 581 110.8 581C101.533 581 92.4667 581 83.2 581C74 581 64.6667 581 55.4667 581C46.2 581 37.1333 581 27.8667 581C18.6667 581 9.33333 581 4.66667 581H0V540.425Z" fill="#1DB954"/>
</svg>
